<?xml version="1.0" encoding="UTF-8"?>
<svg width="14px" height="14px" viewBox="0 0 14 14" version="1.1" xmlns="http://www.w3.org/2000/svg" xmlns:xlink="http://www.w3.org/1999/xlink">
    <!-- Generator: Sketch 41.2 (35397) - http://www.bohemiancoding.com/sketch -->
    <title>user</title>
    <desc>Created with Sketch.</desc>
    <defs></defs>
    <g id="Page-1" stroke="none" stroke-width="1" fill="none" fill-rule="evenodd">
        <g id="user" transform="translate(0.000000, 1.000000)">
            <g id="Page-1">
                <g id="Group-8">
                    <path d="M0.494252874,13 L13.5057471,13 C13.7816092,13 14,12.7706897 14,12.4810345 C14,9.76551724 11.8965517,7.54482759 9.29885057,7.54482759 L4.70114943,7.54482759 C2.11494253,7.54482759 0,9.75344828 0,12.4810345 C-1.5313421e-16,12.7706897 0.218390805,13 0.494252874,13 L0.494252874,13 Z M4.70114943,8.58275862 L9.29885057,8.58275862 C11.183908,8.58275862 12.7356322,10.0551724 12.9770115,11.962069 L1.02298851,11.962069 C1.26436782,10.0672414 2.81609195,8.58275862 4.70114943,8.58275862 Z" id="profile-copy-2" fill="#707473"></path>
                    <path d="M7,0 C8.7875,0 10.25,1.46184072 10.25,3.24853494 C10.25,5.03522916 8.7875,6.49706989 7,6.49706989 C5.2125,6.49706989 3.75,5.03522916 3.75,3.24853494 C3.75,1.46184072 5.2125,0 7,0 L7,0 Z" id="Shape" stroke="#707473"></path>
                </g>
            </g>
        </g>
    </g>
</svg>